HIERARCHY
ROOT root
{
	OFFSET 0.000000 0.000000 0.000000
	CHANNELS 6 Xposition Yposition Zposition Zrotation Yrotation Xrotation
	JOINT lhip
	{
		OFFSET 0.058581 -0.082280 -0.017664
		CHANNELS 3 Zrotation Yrotation Xrotation
		JOINT lknee
		{
			OFFSET 0.043451 -0.386469 0.008037
			CHANNELS 3 Zrotation Yrotation Xrotation
			JOINT lankle
			{
				OFFSET -0.014790 -0.426874 -0.037428
				CHANNELS 3 Zrotation Yrotation Xrotation
				JOINT ltoe
				{
					OFFSET 0.041054 -0.060286 0.122042
					CHANNELS 3 Zrotation Yrotation Xrotation
					End Site
					{
						OFFSET 0.000000 0.000000 0.000000
					}
				}
			}
		}
	}
	JOINT rhip
	{
		OFFSET -0.060310 -0.090513 -0.013543
		CHANNELS 3 Zrotation Yrotation Xrotation
		JOINT rknee
		{
			OFFSET -0.043257 -0.383688 -0.004843
			CHANNELS 3 Zrotation Yrotation Xrotation
			JOINT rankle
			{
				OFFSET 0.019056 -0.420046 -0.034562
				CHANNELS 3 Zrotation Yrotation Xrotation
				JOINT rtoe
				{
					OFFSET -0.034840 -0.062106 0.130323
					CHANNELS 3 Zrotation Yrotation Xrotation
					End Site
					{
						OFFSET 0.000000 0.000000 0.000000
					}
				}
			}
		}
	}
	JOINT lowerback
	{
		OFFSET 0.004439 0.124404 -0.038385
		CHANNELS 3 Zrotation Yrotation Xrotation
		JOINT upperback
		{
			OFFSET 0.004488 0.137956 0.026820
			CHANNELS 3 Zrotation Yrotation Xrotation
			JOINT chest
			{
				OFFSET -0.002265 0.056032 0.002855
				CHANNELS 3 Zrotation Yrotation Xrotation
				JOINT lowerneck
				{
					OFFSET -0.013390 0.211636 -0.033468
					CHANNELS 3 Zrotation Yrotation Xrotation
					JOINT upperneck
					{
						OFFSET 0.010113 0.088937 0.050410
						CHANNELS 3 Zrotation Yrotation Xrotation
						End Site
						{
							OFFSET 0.000000 0.000000 0.000000
						}
					}
				}
				JOINT lclavicle
				{
					OFFSET 0.071702 0.114000 -0.018898
					CHANNELS 3 Zrotation Yrotation Xrotation
					JOINT lshoulder
					{
						OFFSET 0.122921 0.045205 -0.019046
						CHANNELS 3 Zrotation Yrotation Xrotation
						JOINT lelbow
						{
							OFFSET 0.255332 -0.015649 -0.022946
							CHANNELS 3 Zrotation Yrotation Xrotation
							JOINT lwrist
							{
								OFFSET 0.265709 0.012698 -0.007375
								CHANNELS 3 Zrotation Yrotation Xrotation
								End Site
								{
									OFFSET 0.000000 0.000000 0.000000
								}
							}
						}
					}
				}
				JOINT rclavicle
				{
					OFFSET -0.082954 0.112472 -0.023707
					CHANNELS 3 Zrotation Yrotation Xrotation
					JOINT rshoulder
					{
						OFFSET -0.113228 0.046853 -0.008472
						CHANNELS 3 Zrotation Yrotation Xrotation
						JOINT relbow
						{
							OFFSET -0.260127 -0.014369 -0.031269
							CHANNELS 3 Zrotation Yrotation Xrotation
							JOINT rwrist
							{
								OFFSET -0.269108 0.006794 -0.006027
								CHANNELS 3 Zrotation Yrotation Xrotation
								End Site
								{
									OFFSET 0.000000 0.000000 0.000000
								}
							}
						}
					}
				}
			}
		}
	}
}
MOTION
Frames: 15
Frame Time: 0.033333
0.521513 0.721314 0.993674 -91.735400 4.306364 88.656739 3.025630 0.018743 4.295039 -2.885925 -15.940446 2.485395 5.409452 6.855118 -16.574989 0.000000 -0.000000 0.000000 1.359691 -2.732189 1.238509 2.898426 0.196482 8.900825 3.553971 -4.771149 -12.161547 0.000000 -0.000000 0.000000 -1.167053 1.487716 8.528847 0.787436 -2.525697 2.119716 0.925430 -1.610237 3.045016 2.363184 1.972974 10.826470 4.539921 -0.587949 1.653002 -26.327291 3.697536 4.095104 -58.705951 -4.275526 4.123977 11.027906 -15.646011 2.161521 -5.264177 2.076575 -6.906670 23.628624 -1.996312 2.428403 61.576913 2.512915 10.428175 -16.005980 31.234507 -2.289283 7.310997 -0.664955 -7.868724 
0.518978 0.722763 0.993339 -91.971336 4.220993 88.605066 2.977940 0.086890 4.351914 -2.969537 -15.738728 3.035075 5.437354 6.909176 -16.397079 0.000000 -0.000000 0.000000 1.357678 -2.735696 1.449485 2.842362 0.185318 8.846500 3.204895 -4.524244 -12.141580 0.000000 -0.000000 0.000000 -1.091799 1.638376 8.272688 0.771542 -2.250983 1.994128 0.848202 -1.530137 3.221166 2.453648 2.062579 10.626027 4.325461 -0.595198 1.950500 -26.291333 4.012559 4.011575 -58.662193 -4.400536 4.140736 11.004011 -16.282999 2.151253 -5.325779 2.080115 -7.004097 23.645161 -2.086936 2.160123 61.592838 2.646062 10.641377 -15.739819 30.648354 -1.867037 7.333512 -0.581882 -7.659432 
0.516944 0.724352 0.993266 -92.226067 4.202530 88.632873 2.993051 0.070560 4.498331 -2.914186 -15.684968 3.025553 5.402144 7.130112 -16.511164 0.000000 -0.000000 0.000000 1.474353 -2.666463 1.640713 2.728069 0.347448 8.677536 3.244140 -4.458710 -12.228473 0.000000 -0.000000 0.000000 -1.036297 1.769340 8.081588 0.789240 -1.989090 1.795400 0.860551 -1.379894 3.216734 2.459999 2.055150 10.475022 4.341671 -0.646487 2.078785 -26.404326 4.065342 3.829200 -58.707514 -4.602927 4.361036 10.977305 -16.766169 2.204312 -4.950253 1.984300 -6.968503 23.689432 -2.033234 2.074290 61.631400 2.661049 10.728673 -15.655563 30.220980 -1.923008 7.074333 -0.579283 -7.774885 
0.514409 0.726172 0.993132 -92.170694 4.146352 88.772935 2.948283 0.036211 4.438343 -2.804773 -15.657871 3.225873 5.362612 7.180139 -16.561352 0.000000 -0.000000 0.000000 1.483626 -2.743797 1.887762 2.762152 0.278172 8.311317 3.298368 -4.286208 -12.257912 0.000000 -0.000000 0.000000 -0.984937 1.748255 7.813348 0.742365 -2.023268 1.471465 0.855402 -1.353751 3.195739 2.391922 2.101928 10.202804 4.315926 -0.735366 2.218082 -26.504541 3.985910 3.786842 -58.918085 -4.868994 4.639408 11.004896 -17.638953 2.260792 -4.604127 1.758192 -6.887763 23.868460 -1.801615 2.097605 61.626747 2.831228 10.759036 -15.618235 29.917893 -1.932905 7.142241 -0.454831 -7.572521 
0.513383 0.727099 0.993347 -92.144805 4.056061 88.688095 2.897866 -0.059395 4.680568 -2.754087 -15.550122 3.092182 5.340680 7.142555 -16.521240 0.000000 -0.000000 0.000000 1.418422 -2.800747 2.212399 2.793894 0.205924 8.029607 3.322906 -4.248106 -12.188658 0.000000 -0.000000 0.000000 -1.062057 1.791665 7.780062 0.729333 -2.066883 1.419156 0.895210 -1.423684 3.131990 2.340983 2.109709 10.144130 4.344493 -0.690749 2.271162 -26.403815 3.775264 3.828581 -59.309620 -5.206815 4.796833 11.124811 -18.166091 2.126368 -4.613748 1.759871 -7.279031 23.854642 -1.574836 2.084214 61.799575 3.053925 10.828132 -15.655530 29.634874 -1.992078 7.184525 -0.510262 -7.673036 
0.512486 0.728967 0.993434 -92.263478 4.054248 88.689792 3.017316 -0.115808 4.837604 -2.779450 -15.383422 2.992625 5.339622 7.208099 -16.597992 0.000000 -0.000000 0.000000 1.545762 -2.658203 2.351030 2.768072 0.249163 7.928158 3.275912 -4.220769 -12.170420 0.000000 -0.000000 0.000000 -1.195592 1.850682 7.733327 0.835786 -2.025286 1.310242 1.042981 -1.408655 3.023109 2.364326 2.082176 10.093308 4.388781 -0.687000 2.422251 -26.565397 3.487671 3.673458 -59.568134 -5.626169 5.134393 10.944299 -19.137033 2.397353 -4.319137 1.616546 -7.148536 23.800669 -1.332916 2.026455 61.873559 3.182569 10.956973 -15.530895 29.882276 -1.894605 7.192533 -0.559408 -7.617942 
0.510152 0.729999 0.993664 -92.673105 3.919787 88.369763 2.871981 0.238640 5.716218 -2.532917 -15.454319 2.372117 5.285964 7.256023 -16.431004 0.000000 -0.000000 0.000000 1.271364 -2.842181 2.918928 2.905735 0.413598 7.784319 3.340332 -3.825692 -12.177476 0.000000 -0.000000 0.000000 -1.222150 2.039644 7.514466 0.736540 -1.966544 1.692055 0.977707 -1.413903 2.895163 2.255664 2.186609 10.123539 4.342000 -0.707328 2.461185 -26.634394 3.153641 3.652941 -59.781695 -6.039530 5.371593 10.874617 -20.681517 2.235090 -4.162369 1.547920 -7.620234 23.990793 -1.017541 2.134691 61.874906 3.338743 10.996767 -15.428067 30.298328 -1.973184 7.180807 -0.369016 -7.547887 
0.511136 0.731552 0.993593 -92.256672 4.030969 88.770911 3.121877 -0.163487 4.945374 -2.677242 -15.242284 2.911733 5.313179 7.098885 -16.498226 0.000000 -0.000000 0.000000 1.640445 -2.783968 2.455120 2.765512 0.029167 7.813970 3.293625 -4.016354 -12.180552 0.000000 -0.000000 0.000000 -1.155147 1.824758 7.537200 0.790883 -2.126059 1.132792 0.969915 -1.412229 2.861533 2.105126 2.182299 10.055817 4.440539 -0.737769 2.560853 -26.363365 2.910815 3.563727 -60.249182 -6.627507 5.911772 10.691972 -22.360031 2.955729 -4.186165 1.304289 -7.631952 23.702114 -0.982755 2.046306 62.425037 3.304696 11.162015 -15.497598 31.025911 -1.763456 7.461294 -0.084363 -7.919793 
0.511338 0.732844 0.993814 -92.370983 3.987861 88.933204 3.100014 -0.301575 4.731577 -2.641191 -14.993323 3.044908 5.268801 7.129573 -16.520728 0.000000 -0.000000 0.000000 1.740919 -2.606709 2.278351 2.667880 -0.048657 7.746035 3.369085 -4.073003 -12.263404 0.000000 -0.000000 0.000000 -1.277187 1.791411 7.369341 0.809388 -2.066833 0.925374 0.979435 -1.407238 3.001828 2.211819 2.131900 9.782279 4.472134 -0.751511 2.819965 -26.404920 2.770940 3.452810 -60.312823 -7.099829 6.503242 10.496473 -24.650688 3.268007 -3.981753 0.988215 -8.109264 23.717296 -0.814362 1.984837 62.672044 3.476665 11.507368 -15.545960 31.709757 -1.898016 7.274521 -0.101923 -8.368103 
0.510042 0.734253 0.994279 -93.038628 3.891382 88.389322 2.964432 0.207622 5.717810 -2.355600 -15.082898 2.663253 5.269021 7.219753 -16.711452 0.000000 -0.000000 0.000000 1.538427 -2.742822 3.066910 2.741975 0.206497 7.589513 3.489809 -3.507260 -12.158074 0.000000 -0.000000 0.000000 -1.428649 2.056711 7.535103 0.782257 -1.978495 1.355936 1.051907 -1.276065 2.827868 2.092385 2.088592 10.070953 4.521860 -0.687436 2.759002 -26.284809 2.555416 3.338215 -60.533954 -7.441786 7.031026 10.267913 -27.909658 3.902535 -3.495113 0.743510 -8.433150 23.654273 -0.566026 1.985249 62.722041 3.450118 11.475443 -15.178830 33.188274 -1.862288 7.319169 0.057074 -8.645150 
0.510390 0.735229 0.994652 -93.021901 3.874745 88.897207 2.883566 -0.071858 5.161434 -2.205356 -14.959510 2.691242 5.281687 7.336885 -16.753124 0.000000 -0.000000 0.000000 1.554805 -2.583873 2.623404 2.851010 0.105690 7.351399 3.706003 -3.578784 -12.109193 0.000000 -0.000000 0.000000 -1.353671 1.921460 7.772449 0.667770 -1.816240 -0.030822 0.990999 -1.490748 2.881595 2.107687 2.055541 9.173333 4.489550 -0.840818 3.221280 -26.289315 2.983323 3.267192 -60.485463 -7.508731 7.581138 9.966714 -30.194633 4.632150 -2.967916 0.188209 -8.701133 23.766844 -0.739144 2.072216 62.721346 3.020241 11.878747 -14.948612 33.965296 -1.576755 7.074870 0.435269 -8.649091 
0.511804 0.736690 0.994645 -92.840820 3.960897 89.207891 3.108384 -0.506986 4.681960 -2.329043 -14.750389 2.851644 5.361950 7.282129 -16.663718 0.000000 -0.000000 0.000000 1.775674 -2.463611 2.304776 2.864946 -0.100606 7.217445 3.653214 -3.869603 -11.860462 0.000000 -0.000000 0.000000 -1.381067 1.776854 7.884108 0.790226 -1.813551 -0.653687 1.066413 -1.537030 3.012416 2.093640 2.029528 8.979746 4.527219 -0.836558 3.433306 -26.221958 3.012912 3.250043 -60.662669 -8.060532 8.048845 9.769024 -31.870859 5.087446 -3.106423 -0.190866 -9.031364 23.750432 -0.936018 1.957435 62.787409 2.984430 12.075224 -14.853038 34.396543 -1.498927 7.148622 0.704298 -8.861437 
0.511874 0.737249 0.994768 -93.061182 3.955790 89.055492 3.063253 -0.527480 5.112838 -2.118974 -14.631303 2.392944 5.283802 7.444538 -16.577280 0.000000 -0.000000 0.000000 1.750298 -2.510850 2.507737 2.884375 -0.091560 7.111049 3.727066 -3.632716 -11.818588 0.000000 -0.000000 0.000000 -1.369241 1.836071 7.845614 0.838727 -1.778414 -0.436097 1.074804 -1.527082 2.909937 2.107564 2.083402 9.156067 4.542099 -0.804232 3.382469 -26.181589 2.883433 3.283623 -60.727541 -8.311385 8.358042 9.831180 -33.481230 5.375017 -2.845423 -0.343195 -9.149076 23.713789 -0.906528 1.861718 62.914141 2.982050 12.087734 -14.814798 34.420533 -1.441715 7.231610 0.701266 -8.932613 
0.511325 0.737940 0.994906 -93.491377 3.922702 88.798161 3.043446 -0.262354 5.694907 -1.974346 -14.643486 1.966547 5.322887 7.554822 -16.562630 0.000000 -0.000000 0.000000 1.702333 -2.600308 2.840463 2.911189 0.033758 6.992521 3.680441 -3.349896 -11.674419 0.000000 -0.000000 0.000000 -1.431805 1.980029 7.716007 0.889913 -1.693154 -0.072765 1.148837 -1.491630 2.799775 2.134822 2.100879 9.348915 4.540435 -0.773986 3.315755 -26.123197 2.694456 3.366450 -60.856155 -8.524661 8.530515 9.850990 -34.389411 5.604994 -2.922904 -0.347464 -9.255839 23.719848 -0.695081 2.029260 62.890936 2.982415 11.906084 -14.785370 34.199539 -1.588705 7.310974 0.778897 -8.909433 
0.512115 0.738305 0.994794 -93.641951 4.004647 88.289305 3.206351 -0.081801 6.267175 -2.005698 -14.751118 1.832487 5.318635 7.480741 -16.546886 0.000000 -0.000000 0.000000 1.754607 -2.892655 3.209014 3.024822 -0.361059 7.228678 3.425538 -3.149908 -11.657648 0.000000 -0.000000 0.000000 -1.381298 1.939201 7.497659 0.970988 -1.944257 1.381988 1.158906 -1.209745 2.512515 1.960684 2.072957 10.321197 4.595535 -0.758394 2.910197 -25.814880 2.184588 3.347238 -61.222013 -8.923169 8.479449 10.171876 -35.003731 5.222329 -3.384344 -0.273494 -9.822834 23.512628 -0.179354 2.180997 63.056460 3.401123 11.519781 -14.689098 33.640764 -1.675403 7.657344 0.426000 -9.132672 
